<svg width="39" height="34" viewBox="0 0 39 34" fill="none" xmlns="http://www.w3.org/2000/svg">
<path d="M18.5352 0.0927963C16.575 0.505013 15.0313 1.93192 14.3813 3.95073L14.1578 4.63775L13.5688 3.2637C13.2438 2.51325 12.9086 1.8368 12.8273 1.76281C12.5836 1.55141 12.0047 1.60426 11.7508 1.8685C11.5477 2.09047 11.5273 2.23844 11.4563 3.77104C11.4258 4.68003 11.3852 5.80042 11.3852 6.25492L11.375 7.07935L10.6945 6.52972C9.36406 5.46219 7.20078 4.62718 5.40313 4.46864L4.62109 4.40522L4.23516 4.80687C1.75703 7.44929 1.58438 11.878 3.79844 16.4758L4.32656 17.5856L4.18438 18.1881L4.04219 18.78L3.72734 18.6848C2.23438 18.2198 0.89375 17.8498 0.710938 17.8498C0.436719 17.8498 0 18.3043 0 18.5792C0 19.0759 0.294531 19.3402 3.04688 21.2321C4.61094 22.2997 5.89062 23.2087 5.89062 23.2509C5.89062 23.2827 4.61094 24.3291 3.04688 25.5657C1.12734 27.0877 0.182812 27.9016 0.142187 28.0707C0.040625 28.4829 0.182813 28.8423 0.538281 29.0114C0.853125 29.17 0.975 29.1488 3.55469 28.4935L6.24609 27.8065L6.59141 28.2398C7.71875 29.6667 9.76016 31.2733 11.5781 32.1612C18.5555 35.5752 27.168 34.1271 32.0531 28.7155L32.8555 27.817L35.4961 28.4935C38.025 29.1383 38.1469 29.17 38.4617 29.0114C38.8172 28.8317 38.9594 28.4829 38.8578 28.0601C38.8172 27.891 37.9133 27.1089 35.9531 25.5657C34.3891 24.3291 33.1094 23.2827 33.1094 23.2509C33.1094 23.2192 34.3891 22.3102 35.9531 21.2321C38.6953 19.3402 39 19.0759 39 18.5792C39 18.2938 38.5531 17.8498 38.2688 17.8498C38.1367 17.8498 37.4156 18.0401 36.6641 18.2726C35.9125 18.5052 35.2219 18.6954 35.1305 18.6954C35.0187 18.6954 34.9375 18.5263 34.8461 18.1247C34.7242 17.5539 34.7242 17.5539 35.1812 16.6238C36.1359 14.6367 36.5625 13.2309 36.7656 11.2649C37.0195 8.9079 36.3086 6.46631 34.9172 4.92314L34.4398 4.39465L33.6984 4.45807C31.6672 4.63776 29.2297 5.64187 28.0617 6.77283L27.7469 7.08992L27.6859 6.31833C27.6555 5.88498 27.6047 4.77516 27.5641 3.8556C27.5336 2.90433 27.4523 2.09046 27.3914 1.98477C27.3305 1.87907 27.1375 1.73109 26.975 1.66768C26.3859 1.40343 26.1727 1.67825 25.2484 3.79218L24.8625 4.6906L24.7203 4.10927C24.0398 1.42458 21.1555 -0.446259 18.5352 0.0927963ZM21.0641 2.02705C22.1813 2.5661 23.0242 3.71819 23.2477 5.00769C23.3797 5.80042 23.3898 11.5715 23.2578 12.417C23.1258 13.2309 22.7297 14.0448 22.1813 14.6155C20.3328 16.5498 17.1945 15.9367 16.0672 13.4317L15.793 12.8293L15.7625 9.02417C15.7219 4.70117 15.7727 4.29953 16.443 3.37996C17.0219 2.57667 17.6008 2.14331 18.5352 1.81565C19.1547 1.60426 20.3836 1.70996 21.0641 2.02705ZM7.10938 6.50859C8.76484 7.00536 10.1562 7.98834 10.7656 9.1193L11.0602 9.64778L10.2273 10.1657C8.18594 11.4446 6.46953 13.1781 5.43359 15.0383L5.14922 15.5457L4.96641 15.1969C4.33672 13.8968 3.85938 11.804 3.85938 10.3031C3.85938 8.81277 4.17422 7.74524 4.95625 6.50859C5.21016 6.10694 5.22031 6.10694 5.72813 6.17036C6.0125 6.21264 6.63203 6.36061 7.10938 6.50859ZM13.5992 7.3753L14.1172 8.58024V10.4934C14.1172 13.0618 14.3406 13.9813 15.2344 15.218C16.2602 16.6343 17.8039 17.4271 19.5508 17.4271C21.968 17.4271 24.0094 15.7993 24.7203 13.3155C24.8422 12.8715 24.8828 12.2691 24.8828 10.7365V8.72822L25.4008 7.50214C25.6852 6.82568 25.9492 6.23378 26 6.1915C26.0406 6.14922 26.1016 7.06878 26.1422 8.24201C26.1828 9.41525 26.2438 10.4405 26.2742 10.5251C26.3047 10.6096 26.6602 10.8422 27.0562 11.0535C29.9609 12.5544 32.1852 15.0595 33.0992 17.8393C33.2211 18.2092 33.3328 18.6743 33.343 18.8857L33.3633 19.245L32.1445 19.6044C30.6617 20.0483 30.5094 20.1223 30.3672 20.5028C30.2148 20.8833 30.4078 21.3273 30.8039 21.5281C31.0883 21.6655 31.1289 21.6655 32.8961 21.1264C33.343 20.9996 33.2719 21.0525 32.0938 21.8663C30.9664 22.6379 30.875 22.7436 30.875 23.2087C30.875 23.642 30.8852 23.6526 32.825 25.1852C33.7086 25.8828 34.4195 26.4641 34.3992 26.4747C34.3891 26.4958 33.668 26.3161 32.8047 26.0836C31.9414 25.8617 31.1289 25.6714 30.9969 25.6714C30.6617 25.6714 30.2656 26.1259 30.2656 26.517C30.2656 26.8235 30.4281 27.0666 30.8344 27.3308C31.0172 27.4577 30.9766 27.5105 30.3164 28.1553C28.8742 29.561 26.843 30.7871 24.832 31.4636C19.2359 33.3661 12.6547 32.0238 8.78516 28.187C8.09453 27.5105 8.02344 27.4048 8.18594 27.3097C8.55156 27.0877 8.73438 26.8235 8.73438 26.517C8.73438 26.1259 8.33828 25.6714 8.00313 25.6714C7.87109 25.6714 7.05859 25.8617 6.19531 26.0836C5.33203 26.3161 4.61094 26.4958 4.60078 26.4747C4.59062 26.4641 5.26094 25.9145 6.10391 25.2486C8.08438 23.6843 8.125 23.642 8.125 23.2087C8.125 22.7436 8.03359 22.6379 6.90625 21.8663C5.72813 21.0525 5.65703 20.9996 6.10391 21.1264C7.87109 21.6655 7.91172 21.6655 8.19609 21.5281C8.59219 21.3378 8.76484 20.9256 8.62266 20.524C8.49063 20.1223 8.33828 20.0378 6.87578 19.6044C6.21563 19.4036 5.65703 19.2239 5.62656 19.2028C5.525 19.0865 6.14453 17.1945 6.55078 16.4018C7.72891 14.0976 9.61797 12.2902 12.3398 10.8633C12.8172 10.6202 12.8984 10.3242 12.8984 8.86562C12.8984 7.70296 12.9898 6.06466 13.0508 6.13865C13.0609 6.15979 13.3047 6.70941 13.5992 7.3753ZM34.0539 6.45574C34.8461 7.55499 35.1914 8.74936 35.1812 10.3982C35.1812 11.7934 34.9578 12.9138 34.4094 14.3513C33.9219 15.6514 33.9523 15.6196 33.5766 14.9643C32.5203 13.1463 30.682 11.2861 28.8234 10.1657C28.3867 9.90145 28.0312 9.65835 28.0312 9.63721C28.0312 9.42582 28.5695 8.61195 28.9961 8.1786C29.9203 7.24846 31.2 6.60371 32.7945 6.27605C33.7492 6.07523 33.7797 6.0858 34.0539 6.45574Z" fill="url(#paint0_linear_559_417)"/>
<path d="M17.1641 3.89792C17.0422 4.02475 16.9609 4.24671 16.9609 4.47925C16.9609 4.71178 17.0422 4.93374 17.1641 5.06058C17.357 5.2614 17.4992 5.27197 19.5406 5.27197H21.7242L21.9273 4.99716C22.0492 4.83862 22.1406 4.60608 22.1406 4.47925C22.1406 4.35241 22.0492 4.11988 21.9273 3.96133L21.7242 3.68652H19.5406C17.4992 3.68652 17.357 3.69709 17.1641 3.89792Z" fill="url(#paint1_linear_559_417)"/>
<path d="M17.3976 6.54028C16.9304 6.74111 16.7984 7.5444 17.1843 7.91434C17.3875 8.11516 17.5296 8.12573 19.5203 8.12573C21.6328 8.12573 21.6429 8.12573 21.8867 7.86149C22.2117 7.53383 22.2117 7.16389 21.8968 6.78339L21.6531 6.48744L19.632 6.4663C18.525 6.45573 17.5195 6.48744 17.3976 6.54028Z" fill="url(#paint2_linear_559_417)"/>
<path d="M17.4687 9.36246C16.9203 9.57385 16.7679 10.3349 17.1945 10.7471C17.4179 10.969 17.5195 10.9796 19.5406 10.9796C21.6328 10.9796 21.6429 10.9796 21.8867 10.7154C22.2828 10.3137 22.1609 9.63727 21.6633 9.40474C21.4195 9.28847 17.7633 9.24619 17.4687 9.36246Z" fill="url(#paint3_linear_559_417)"/>
<path d="M17.225 12.3642C17.0219 12.5333 16.9609 12.6707 16.9609 12.9878C16.9609 13.3049 17.0219 13.4423 17.225 13.6114C17.4789 13.8228 17.6211 13.8334 19.5711 13.8334C21.6328 13.8334 21.643 13.8334 21.8867 13.5691C22.293 13.1569 22.2117 12.5544 21.7242 12.3008C21.5008 12.1739 21.0031 12.1422 19.4695 12.1422C17.6313 12.1422 17.4789 12.1528 17.225 12.3642Z" fill="url(#paint4_linear_559_417)"/>
<path d="M12.6622 18.2376C10.3364 18.8401 9.46297 21.7996 11.0981 23.5436C11.738 24.2306 12.3778 24.516 13.302 24.516C14.5411 24.5265 15.4552 23.9452 16.0645 22.7508C16.2575 22.3809 16.2981 22.1378 16.2981 21.3556C16.2981 20.4995 16.2677 20.3515 15.9934 19.8442C15.8309 19.5271 15.5567 19.1572 15.3841 19.0092C14.6731 18.375 13.4645 18.0368 12.6622 18.2376ZM14.0739 20.0873C14.47 20.3621 14.7239 20.8694 14.7239 21.4296C14.7239 22.6029 13.3325 23.2899 12.4489 22.5606C11.6059 21.863 11.7278 20.5206 12.6927 20.0027C13.0989 19.7808 13.6778 19.8125 14.0739 20.0873Z" fill="url(#paint5_linear_559_417)"/>
<path d="M24.5345 18.2399C21.6806 18.9798 21.2642 22.9434 23.9048 24.2541C24.2806 24.4443 24.5955 24.5183 25.1236 24.5183C25.9869 24.5289 26.4541 24.3703 27.0837 23.8524C28.3837 22.7743 28.597 20.7766 27.5509 19.3603C26.9314 18.5147 25.5197 17.9968 24.5345 18.2399ZM25.9462 20.0896C26.6572 20.5758 26.8095 21.7385 26.2408 22.3621C25.3064 23.3768 23.7525 22.732 23.7525 21.3263C23.7525 20.1953 25.0423 19.466 25.9462 20.0896Z" fill="url(#paint6_linear_559_417)"/>
<path d="M14.1172 25.9288C14.1172 28.9027 23.8543 29.6918 24.7713 26.5959C24.6882 25.0795 24.5766 23.1568 24.832 25.9288C24.8541 26.1686 24.8321 26.3908 24.7713 26.5959C24.8039 27.1899 24.832 27.7215 24.832 27.8842C24.832 30.8966 14.1172 30.3152 14.1172 27.8842C14.1172 27.3063 14.1172 22.7579 14.1172 25.9288Z" fill="url(#paint7_linear_559_417)" stroke="black"/>
<defs>
<linearGradient id="paint0_linear_559_417" x1="45.8047" y1="46.2951" x2="-6.9357" y2="-1.5979" gradientUnits="userSpaceOnUse">
<stop stop-color="#C8FA00"/>
<stop offset="1" stop-color="#00D1FF"/>
</linearGradient>
<linearGradient id="paint1_linear_559_417" x1="23.0444" y1="5.84531" x2="21.3822" y2="1.54641" gradientUnits="userSpaceOnUse">
<stop stop-color="#C8FA00"/>
<stop offset="1" stop-color="#00D1FF"/>
</linearGradient>
<linearGradient id="paint2_linear_559_417" x1="23.0344" y1="8.72655" x2="21.2306" y2="4.27983" gradientUnits="userSpaceOnUse">
<stop stop-color="#C8FA00"/>
<stop offset="1" stop-color="#00D1FF"/>
</linearGradient>
<linearGradient id="paint3_linear_559_417" x1="23.0252" y1="11.5893" x2="21.1755" y2="7.0957" gradientUnits="userSpaceOnUse">
<stop stop-color="#C8FA00"/>
<stop offset="1" stop-color="#00D1FF"/>
</linearGradient>
<linearGradient id="paint4_linear_559_417" x1="23.0517" y1="14.4449" x2="21.1954" y2="9.93858" gradientUnits="userSpaceOnUse">
<stop stop-color="#C8FA00"/>
<stop offset="1" stop-color="#00D1FF"/>
</linearGradient>
<linearGradient id="paint5_linear_559_417" x1="17.352" y1="26.8075" x2="7.85612" y2="19.641" gradientUnits="userSpaceOnUse">
<stop stop-color="#C8FA00"/>
<stop offset="1" stop-color="#00D1FF"/>
</linearGradient>
<linearGradient id="paint6_linear_559_417" x1="29.2755" y1="26.8111" x2="19.7619" y2="19.5932" gradientUnits="userSpaceOnUse">
<stop stop-color="#C8FA00"/>
<stop offset="1" stop-color="#00D1FF"/>
</linearGradient>
<linearGradient id="paint7_linear_559_417" x1="26.7114" y1="22.5654" x2="19.07" y2="34.5568" gradientUnits="userSpaceOnUse">
<stop stop-color="#C8FA00"/>
<stop offset="1" stop-color="#00D1FF"/>
</linearGradient>
</defs>
</svg>
