<svg width="25" height="25" viewBox="0 0 25 25" fill="none" xmlns="http://www.w3.org/2000/svg">
<path d="M22.335 2.33928C23.5724 4.54066 23.8318 7.54218 22.8012 10.1269C21.771 12.7121 19.7317 14.1765 17.6284 14.1458C16.3909 11.9439 16.1316 8.94343 17.1624 6.35823C18.1928 3.77328 20.2316 2.30856 22.335 2.33928Z" fill="white"/>
<path d="M17.6284 14.1458C16.3909 11.9439 16.1316 8.94343 17.1624 6.35823C18.1928 3.77302 20.2317 2.30856 22.335 2.33928" fill="white"/>
<path d="M17.6929 14.5272L17.6247 14.5267C17.5318 14.5251 17.4449 14.4673 17.3902 14.37C16.0358 11.9603 15.8484 8.82318 16.9007 6.18365C17.9396 3.57738 19.9968 1.95807 22.2698 1.95807L22.338 1.95858C22.4309 1.9601 22.5178 2.01798 22.5725 2.1152C23.9269 4.525 24.1146 7.66207 23.0622 10.3016C22.0236 12.9079 19.9661 14.5272 17.6929 14.5272ZM22.1829 2.72063C20.1656 2.76125 18.3479 4.21428 17.4236 6.53295C16.4965 8.85821 16.6359 11.6115 17.78 13.7646C19.7975 13.724 21.6154 12.271 22.5395 9.9523C23.4666 7.62729 23.327 4.87429 22.1829 2.72063Z" fill="white"/>
<path d="M21.4301 5.09515C22.1917 6.44969 22.3513 8.29696 21.7169 9.88808C21.0829 11.4792 19.8276 12.3809 18.5331 12.3616C17.7715 11.0065 17.6121 9.15979 18.2463 7.56866C18.8803 5.97728 20.1354 5.07586 21.4301 5.09515Z" fill="#1D3125"/>
<path d="M18.5738 12.7426L18.5295 12.7423C18.4365 12.7408 18.3497 12.6829 18.2952 12.5857C17.4363 11.0575 17.3175 9.06834 17.9849 7.39394C18.6434 5.74087 19.948 4.71405 21.3892 4.71405L21.4335 4.7143C21.5264 4.71583 21.6131 4.7737 21.6678 4.87093C22.5268 6.3991 22.6456 8.38827 21.9781 10.0627C21.3194 11.7157 20.0149 12.7426 18.5738 12.7426ZM21.2774 5.47814C20.1019 5.52942 19.0478 6.38743 18.5075 7.74324C17.9654 9.10261 18.0366 10.7082 18.6855 11.9787C19.8608 11.9274 20.9149 11.0694 21.4554 9.71362C21.9977 8.35375 21.9269 6.74866 21.2774 5.47814Z" fill="white"/>
<path d="M2.66486 2.33928C1.42744 4.54066 1.16788 7.54218 2.19867 10.1269C3.22888 12.7121 5.26812 14.1765 7.37127 14.1458C8.60869 11.9439 8.86806 8.94343 7.83765 6.35823C6.80725 3.77302 4.76821 2.30856 2.66486 2.33928Z" fill="white"/>
<path d="M7.37122 14.1458C8.60865 11.9439 8.86801 8.94343 7.83761 6.35823C6.8072 3.77302 4.76815 2.30856 2.66479 2.33928" fill="white"/>
<path d="M7.3065 14.5272C5.03336 14.5272 2.97606 12.9079 1.93741 10.3017C0.884849 7.66237 1.07246 4.52556 2.42713 2.11551C2.48183 2.01828 2.56887 1.96041 2.6616 1.95888L2.72983 1.95837C5.00277 1.95837 7.06026 3.57768 8.09911 6.18395C9.15128 8.82348 8.96347 11.9603 7.60919 14.3701C7.55449 14.4673 7.46745 14.5252 7.37472 14.5267L7.3065 14.5272ZM2.81668 2.72069C1.67236 4.87409 1.53278 7.62734 2.46007 9.9521C3.38423 12.271 5.20195 13.7238 7.21945 13.7647C8.36357 11.6115 8.50316 8.85826 7.57625 6.533C6.6521 4.21434 4.83398 2.76155 2.81668 2.72069Z" fill="white"/>
<path d="M3.56964 5.09515C2.80801 6.44969 2.64844 8.29696 3.28263 9.88809C3.91663 11.4792 5.17189 12.3809 6.46636 12.3616C7.22798 11.0065 7.38756 9.15979 6.75336 7.56866C6.11917 5.97728 4.8643 5.07586 3.56964 5.09515Z" fill="#1D3125"/>
<path d="M6.42558 12.7426C4.98447 12.7426 3.68 11.7155 3.02129 10.0624C2.35376 8.38802 2.47276 6.3986 3.33182 4.87093C3.38652 4.7737 3.47337 4.71583 3.5661 4.7143L3.6104 4.71405C5.05152 4.71405 6.35599 5.74087 7.0147 7.3942C7.68203 9.06834 7.56303 11.0575 6.70416 12.5857C6.64966 12.6829 6.56262 12.7408 6.46989 12.7423L6.42558 12.7426ZM3.72215 5.47814C3.07285 6.74866 3.00188 8.35375 3.54394 9.71337C4.08424 11.0694 5.13836 11.9274 6.31384 11.9787C6.96294 10.708 7.03391 9.10286 6.49204 7.74349C5.95175 6.38743 4.89743 5.52942 3.72215 5.47814Z" fill="white"/>
<path d="M22.1468 15.1148C22.1468 20.3634 17.8275 24.6192 12.4997 24.6192C7.17158 24.6192 2.85254 20.3632 2.85254 15.1148C2.85254 9.86521 7.17158 3.57507 12.4997 3.57507C17.8275 3.57507 22.1468 9.86521 22.1468 15.1148Z" fill="#1D3125"/>
<path d="M22.1468 15.1148C22.1468 20.3634 17.8275 24.6192 12.4997 24.6192C7.17158 24.6192 2.85254 20.3632 2.85254 15.1148C2.85254 9.8652 7.17158 6.24835 12.4997 6.24835C17.8275 6.24835 22.1468 9.8652 22.1468 15.1148Z" fill="#1D3125"/>
<path d="M22.1468 15.1148C22.1468 20.3634 17.8275 24.6192 12.4997 24.6192C7.17158 24.6192 2.85254 20.3631 2.85254 15.1148C2.85254 9.86467 4.08016 19.7704 12.4997 19.7704C20.9193 19.7701 22.1468 9.86467 22.1468 15.1148Z" fill="#1D3125"/>
<path d="M12.4998 25C7.0182 25 2.55859 20.5655 2.55859 15.1148C2.55859 9.71542 6.99291 3.19427 12.4998 3.19427C15.0564 3.19427 17.5522 4.58334 19.5278 7.10508C21.3519 9.4339 22.441 12.4283 22.441 15.1148C22.441 20.5655 17.9814 25 12.4998 25ZM12.4998 3.95582C7.31873 3.95582 3.14673 10.0604 3.14673 15.1148C3.14673 20.1456 7.34245 24.2384 12.4998 24.2384C17.6571 24.2384 21.8528 20.1456 21.8528 15.1148C21.8528 10.0601 17.6808 3.95582 12.4998 3.95582Z" fill="white"/>
<path d="M9.33143 14.5668C9.33143 15.6961 8.62468 16.6105 7.75268 16.6105C6.88125 16.6105 6.17432 15.6961 6.17432 14.5668C6.17432 13.4379 6.88106 12.523 7.75268 12.523C8.62449 12.5233 9.33143 13.4379 9.33143 14.5668Z" fill="#1D3125"/>
<path d="M9.33143 14.5668C9.33143 15.6961 8.62468 14.9892 7.75268 14.9892C6.88125 14.9892 6.17432 15.6961 6.17432 14.5668C6.17432 13.4379 6.88106 12.523 7.75268 12.523C8.62449 12.5233 9.33143 13.4379 9.33143 14.5668Z" fill="white"/>
<path d="M7.75256 16.9913C6.71999 16.9913 5.88013 15.9038 5.88013 14.5668C5.88013 13.2298 6.71999 12.1423 7.75256 12.1423C8.78533 12.1423 9.62539 13.2298 9.62539 14.5668C9.62539 15.9038 8.78533 16.9913 7.75256 16.9913ZM7.75256 12.9041C7.04444 12.9041 6.46826 13.6499 6.46826 14.567C6.46826 15.4842 7.04425 16.23 7.75256 16.23C8.46087 16.23 9.03725 15.4842 9.03725 14.567C9.03725 13.6499 8.46087 12.9041 7.75256 12.9041Z" fill="white"/>
<path d="M6.96799 14.735C7.32314 14.735 7.61103 14.3622 7.61103 13.9023C7.61103 13.4425 7.32314 13.0697 6.96799 13.0697C6.61285 13.0697 6.32495 13.4425 6.32495 13.9023C6.32495 14.3622 6.61285 14.735 6.96799 14.735Z" fill="#1D3125"/>
<path d="M6.9674 15.116C6.45063 15.116 6.03052 14.5715 6.03052 13.9024C6.03052 13.2332 6.45083 12.6892 6.9674 12.6892C7.48436 12.6892 7.90467 13.2335 7.90467 13.9024C7.90467 14.5718 7.48436 15.116 6.9674 15.116ZM6.9674 13.4508C6.77508 13.4508 6.61864 13.6533 6.61864 13.9024C6.61864 14.1516 6.77508 14.3545 6.9674 14.3545C7.15991 14.3545 7.31655 14.1516 7.31655 13.9024C7.31655 13.6533 7.16011 13.4508 6.9674 13.4508Z" fill="white"/>
<path d="M18.8251 14.5668C18.8251 15.6961 18.1186 16.6105 17.2468 16.6105C16.3749 16.6105 15.6682 15.6961 15.6682 14.5668C15.6682 13.4379 16.3748 12.523 17.2468 12.523C18.1184 12.5233 18.8251 13.4379 18.8251 14.5668Z" fill="#1D3125"/>
<path d="M18.8251 14.5668C18.8251 15.6961 18.1186 14.9892 17.2468 14.9892C16.3749 14.9892 15.6682 15.6961 15.6682 14.5668C15.6682 13.4379 16.3748 12.523 17.2468 12.523C18.1184 12.5233 18.8251 13.4379 18.8251 14.5668Z" fill="white"/>
<path d="M17.2466 16.9912C16.2141 16.9912 15.374 15.9038 15.374 14.5667C15.374 13.2297 16.2141 12.1422 17.2466 12.1422C18.2792 12.1422 19.1191 13.2297 19.1191 14.5667C19.1191 15.9038 18.279 16.9912 17.2466 16.9912ZM17.2466 12.904C16.5385 12.904 15.9622 13.6498 15.9622 14.567C15.9622 15.4841 16.5383 16.23 17.2466 16.23C17.9549 16.23 18.5309 15.4841 18.5309 14.567C18.5309 13.6498 17.9547 12.904 17.2466 12.904Z" fill="white"/>
<path d="M16.4616 14.735C16.8168 14.735 17.1047 14.3622 17.1047 13.9024C17.1047 13.4425 16.8168 13.0698 16.4616 13.0698C16.1065 13.0698 15.8186 13.4425 15.8186 13.9024C15.8186 14.3622 16.1065 14.735 16.4616 14.735Z" fill="#1D3125"/>
<path d="M16.4619 15.1161C15.945 15.1161 15.5247 14.5716 15.5247 13.9024C15.5247 13.2333 15.9452 12.6893 16.4619 12.6893C16.9787 12.6893 17.3988 13.2335 17.3988 13.9024C17.3988 14.5718 16.9787 15.1161 16.4619 15.1161ZM16.4619 13.4508C16.2694 13.4508 16.1128 13.6534 16.1128 13.9024C16.1128 14.1517 16.2694 14.3545 16.4619 14.3545C16.6542 14.3545 16.8107 14.1517 16.8107 13.9024C16.8107 13.6534 16.6542 13.4508 16.4619 13.4508Z" fill="white"/>
<path d="M15.6815 17.0409C15.6815 17.394 14.257 17.4574 12.4999 17.4574C10.7425 17.4574 9.31787 17.394 9.31787 17.0409C9.31787 16.6872 10.7427 15.7637 12.4999 15.7637C14.2572 15.7637 15.6815 16.6875 15.6815 17.0409Z" fill="#1D3125"/>
<path d="M20.6367 17.1599L24.5436 13.2554L20.0396 14.925" fill="#1D3125"/>
<path d="M20.6366 17.5406C20.5486 17.5406 20.4615 17.4898 20.4037 17.3924C20.3045 17.2261 20.3282 16.9867 20.4568 16.8583L23.1483 14.1682L20.1202 15.2907C19.9628 15.3479 19.801 15.2316 19.7565 15.0295C19.7118 14.8272 19.8022 14.6165 19.9583 14.5586L24.4624 12.8893C24.5992 12.8393 24.7421 12.9208 24.8059 13.0838C24.8694 13.247 24.8347 13.4455 24.7229 13.5569L20.816 17.4614C20.7624 17.515 20.6993 17.5406 20.6366 17.5406Z" fill="white"/>
<path d="M4.36299 17.1599L0.456055 13.2554L4.96013 14.925" fill="#1D3125"/>
<path d="M4.36294 17.5407C4.30021 17.5407 4.23688 17.5148 4.18356 17.4615L0.2766 13.557C0.164855 13.4456 0.130155 13.2468 0.193674 13.0838C0.257388 12.9209 0.400696 12.8394 0.537143 12.8894L5.04125 14.5587C5.1973 14.6168 5.28768 14.8275 5.24298 15.0296C5.19809 15.2317 5.03596 15.3482 4.87932 15.2908L1.85122 14.1683L4.54271 16.8583C4.67132 16.9868 4.69504 17.2259 4.59584 17.3924C4.53801 17.4899 4.45096 17.5407 4.36294 17.5407Z" fill="white"/>
<path d="M20.7459 17.1743L24.7055 21.1313L20.1409 19.4392" fill="#1D3125"/>
<path d="M24.7058 21.5121C24.6789 21.5121 24.6519 21.5073 24.6248 21.4974L20.0601 19.8052C19.904 19.7471 19.8137 19.5364 19.8584 19.3343C19.9031 19.1323 20.0652 19.016 20.222 19.0731L23.3107 20.2182L20.5667 17.4759C20.4381 17.3475 20.4143 17.1083 20.5135 16.9418C20.6127 16.775 20.7974 16.7446 20.926 16.873L24.8855 20.83C24.9973 20.9415 25.032 21.1402 24.9685 21.3032C24.9171 21.4337 24.8144 21.5121 24.7058 21.5121Z" fill="white"/>
<path d="M4.25389 17.1743L0.294189 21.1313L4.85869 19.4392" fill="#1D3125"/>
<path d="M0.294067 21.5122C0.185263 21.5122 0.0827318 21.4337 0.0315643 21.3032C-0.0319539 21.14 0.00274586 20.9415 0.114491 20.8301L4.07399 16.8731C4.2024 16.7446 4.38707 16.7753 4.48646 16.9418C4.58566 17.1081 4.56194 17.3475 4.43334 17.4759L1.68951 20.2183L4.77779 19.0732C4.93305 19.0158 5.09675 19.1323 5.14145 19.3344C5.18615 19.5367 5.09577 19.7474 4.93972 19.8053L0.375229 21.4974C0.348175 21.5073 0.320925 21.5122 0.294067 21.5122Z" fill="white"/>
<path d="M17.3282 6.76898L17.4531 0.381104L15.6121 5.9592" fill="#1D3125"/>
<path d="M17.3286 7.14979C17.3261 7.14979 17.3235 7.14979 17.321 7.14979C17.1587 7.14446 17.0304 6.96956 17.0344 6.75937L17.1204 2.35863L15.8826 6.10901C15.8189 6.30219 15.6466 6.39306 15.4966 6.30929C15.3472 6.22679 15.278 6.0029 15.3419 5.80946L17.183 0.231119C17.2383 0.0633245 17.3798 -0.030092 17.5158 0.00874694C17.6537 0.0475859 17.7507 0.207765 17.7474 0.390537L17.6225 6.77866C17.6182 6.98555 17.4874 7.14979 17.3286 7.14979Z" fill="white"/>
<path d="M7.67078 6.76898L7.5459 0.381104L9.38694 5.9592" fill="#1D3125"/>
<path d="M7.67104 7.14974C7.51205 7.14974 7.38129 6.98576 7.37717 6.77861L7.25229 0.390742C7.24876 0.20797 7.346 0.0477913 7.48382 0.0089523C7.62026 -0.0301405 7.76141 0.0635298 7.8167 0.231324L9.65774 5.80967C9.72165 6.0031 9.65245 6.227 9.50306 6.3095C9.35309 6.39327 9.18077 6.30239 9.11705 6.10921L7.87924 2.35858L7.9653 6.75932C7.96942 6.96951 7.84101 7.14441 7.67868 7.14974C7.67633 7.14974 7.67359 7.14974 7.67104 7.14974Z" fill="white"/>
<path d="M16.5924 20.0068L13.6796 20.8471C12.9712 21.0515 12.2202 21.0561 11.5094 20.8605L8.40698 20.0068C7.86648 20.0068 7.42676 19.4374 7.42676 18.7375C7.42676 18.0376 7.86648 17.4683 8.40698 17.4683C8.5693 17.4683 8.70104 17.6388 8.70104 17.849C8.70104 18.0592 8.5693 18.2298 8.40698 18.2298C8.19074 18.2298 8.01489 18.4575 8.01489 18.7375C8.01489 19.0175 8.19074 19.2452 8.40698 19.2452L11.4338 20.141C12.1918 20.3653 12.9993 20.36 13.7543 20.1258L16.5924 19.2452C16.8086 19.2452 16.9845 19.0175 16.9845 18.7375C16.9845 18.4575 16.8086 18.2298 16.5924 18.2298C16.4301 18.2298 16.2983 18.0592 16.2983 17.849C16.2983 17.6388 16.4301 17.4683 16.5924 17.4683C17.1329 17.4683 17.5726 18.0376 17.5726 18.7375C17.5726 19.4374 17.1329 20.0068 16.5924 20.0068Z" fill="white"/>
<path d="M8.922 20.8115C8.75967 20.8115 8.62793 20.6409 8.62793 20.4307V19.923C8.62793 19.7128 8.75967 19.5422 8.922 19.5422C9.08433 19.5422 9.21608 19.7128 9.21608 19.923V20.4307C9.21608 20.6409 9.08433 20.8115 8.922 20.8115Z" fill="white"/>
<path d="M16.0775 20.8115C15.9152 20.8115 15.7834 20.6409 15.7834 20.4307V19.923C15.7834 19.7128 15.9152 19.5422 16.0775 19.5422C16.2399 19.5422 16.3716 19.7128 16.3716 19.923V20.4307C16.3716 20.6409 16.2399 20.8115 16.0775 20.8115Z" fill="white"/>
</svg>
