<svg width="18" height="23" viewBox="0 0 18 23" fill="none" xmlns="http://www.w3.org/2000/svg">
<path d="M1 20.1316C1 19.5776 1.24584 19.0522 1.67114 18.6972L2.18371 18.2693C2.97227 17.6111 3.49047 16.6626 3.56594 15.6065C3.65286 14.3899 3.76136 12.3032 3.76136 9.46617C3.76136 8.02511 4.54124 6.88145 5.63637 5.97189C6.73565 5.0589 8.04988 4.47412 8.84196 4.17754C9.09811 4.08163 9.36278 4.07762 9.60557 4.16044C10.3469 4.41332 11.5356 4.92166 12.5232 5.79234C13.4895 6.64421 14.2386 7.81472 14.2386 9.46617C14.2386 12.1591 14.218 14.0271 14.1986 15.1891C14.1774 16.4558 14.7437 17.6719 15.7507 18.4596L16.1712 18.7886C16.5825 19.1102 16.8334 19.5949 16.8587 20.1164C16.9085 21.1415 16.0908 22 15.0644 22H2.86842C1.83652 22 1 21.1635 1 20.1316Z" stroke="white" stroke-width="2"/>
<path d="M7.17857 5.12013C6.68818 4.88656 7.18831 5.52519 6.91649 4.99531C6.64468 4.46543 6.52971 3.84953 6.58953 3.24374C6.64935 2.63796 6.8806 2.07638 7.24717 1.64666C7.61375 1.21695 8.09503 0.943275 8.61589 0.868367C9.13675 0.79346 9.66787 0.92153 10.1264 1.23259C10.5848 1.54365 10.9449 2.02019 11.1503 2.58783C11.3557 3.15547 11.3949 3.78226 11.2618 4.37038C11.1287 4.95849 11.2998 4.92502 10.8836 5.28899L7.17857 5.12013Z" fill="white"/>
</svg>
