<svg width="44" height="33" viewBox="0 0 44 33" fill="none" xmlns="http://www.w3.org/2000/svg">
<g clip-path="url(#clip0_531_181)">
<path d="M0.0313945 0.0812912C0.0313945 0.531612 0.140847 1.91072 0.206519 2.26409C0.578659 4.33431 1.55748 6.70787 2.82088 8.59046C3.48698 9.58804 4.10617 10.3386 5.00055 11.2267C6.39842 12.6183 7.79316 13.6096 9.65386 14.5322L10.3825 14.8918L10.0291 15.4141C9.30987 16.4679 8.97213 17.1121 8.65002 18.0378C8.52806 18.388 8.34355 19.0698 8.28414 19.3888C8.24974 19.567 8.22472 19.6139 8.07461 19.7797C7.69309 20.1924 7.43979 20.5865 7.18023 21.165C6.35151 23.0101 6.1545 25.3836 6.66111 27.3851C7.03325 28.8517 7.79316 30.2121 8.80951 31.2253C9.84775 32.2667 11.0611 32.8608 12.3276 32.9484L12.6278 32.9703L12.7811 32.7608C13.2627 32.0947 13.7599 31.1565 13.9757 30.506C14.1821 29.8806 14.2446 29.5022 14.2415 28.8642C14.2415 28.3858 14.229 28.2732 14.1571 27.9667C13.885 26.8034 13.172 25.7933 11.993 24.9052C11.3989 24.4611 10.6108 24.0139 9.9228 23.7356C9.77895 23.6762 9.66324 23.6136 9.66324 23.5917C9.66324 23.4885 9.86338 22.7943 9.96346 22.5535C10.0854 22.2595 10.2731 21.9187 10.3981 21.7717C10.4388 21.7217 10.6077 21.5716 10.7734 21.4371L11.0705 21.19V20.8054C11.0705 20.4489 11.0799 20.3926 11.1831 20.0705C11.3895 19.4325 11.7178 18.6726 12.0493 18.0597C12.6122 17.0214 13.4847 15.6642 14.476 14.2789C14.8075 13.816 15.0858 13.4189 15.0952 13.397C15.1015 13.3751 15.0671 13.347 15.0045 13.3282C12.3902 12.5057 11.6553 12.2337 10.492 11.6645C9.52252 11.1892 8.58748 10.6013 7.81818 9.98833C7.30532 9.57553 6.48598 8.76871 6.11384 8.30275C5.75109 7.84618 5.30389 7.1707 5.0631 6.711L4.86921 6.34199L5.65727 5.55393L6.4422 4.76899L6.95194 5.02543C9.24732 6.1825 11.4708 8.03381 13.3096 10.3198C14.0132 11.1954 14.2634 11.5676 14.7919 12.5308C15.0233 12.9498 15.2203 13.2907 15.236 13.2907C15.2516 13.2907 15.5862 13.0749 15.9771 12.8091C16.7339 12.2931 17.1873 12.0492 17.8159 11.8084C20.4084 10.8264 23.6232 10.8264 26.2156 11.8084C26.8442 12.0492 27.2977 12.2931 28.0544 12.8091C28.4453 13.0749 28.78 13.2907 28.7956 13.2907C28.8112 13.2907 29.0082 12.9498 29.2397 12.5308C29.6837 11.7177 29.962 11.2892 30.4593 10.6482C32.3512 8.21206 34.6779 6.23566 37.0796 5.02543L37.5893 4.76899L38.3743 5.55393L39.1623 6.34199L38.9684 6.711C38.7277 7.1707 38.2805 7.84618 37.9177 8.30275C37.5456 8.76871 36.7262 9.57553 36.2134 9.98833C34.975 10.9797 33.4176 11.824 31.6382 12.4745C31.2286 12.6246 30.428 12.8841 29.027 13.3282C28.9645 13.347 28.9301 13.3751 28.9363 13.397C28.9457 13.4189 29.2209 13.8129 29.5524 14.2757C31.3537 16.7932 32.3075 18.46 32.8203 19.9892C32.9548 20.3926 32.9611 20.4176 32.9611 20.7991V21.19L33.2581 21.4371C33.4239 21.5716 33.5928 21.7217 33.6334 21.7717C33.7585 21.9187 33.9461 22.2595 34.0681 22.5535C34.1682 22.7943 34.3683 23.4885 34.3683 23.5917C34.3683 23.6136 34.2526 23.6762 34.1119 23.7356C33.5021 23.9795 32.7265 24.4048 32.2105 24.777C30.0527 26.3249 29.3178 28.2763 30.0559 30.506C30.2716 31.1565 30.7689 32.0947 31.2505 32.7608L31.4037 32.9703L31.7039 32.9484C32.9704 32.8608 34.1838 32.2667 35.222 31.2253C36.4104 30.0401 37.2422 28.3826 37.5268 26.6439C37.8645 24.5612 37.4768 22.1501 36.5417 20.5583C36.3603 20.2519 36.2227 20.0674 35.9569 19.7797C35.8068 19.6139 35.7818 19.567 35.7474 19.3888C35.6442 18.8352 35.4191 18.0941 35.172 17.4905C34.8874 16.7994 34.6873 16.4398 34.0837 15.536L33.6522 14.8918L34.3777 14.5322C36.1696 13.644 37.58 12.6527 38.9278 11.3362C41.1794 9.14085 42.8431 6.25443 43.6186 3.20539C43.8375 2.35478 43.897 1.95137 43.9532 0.956909C43.9814 0.462811 43.997 0.0500183 43.9908 0.0406342C43.972 0.0249977 41.8361 0.143837 41.3733 0.190742C36.548 0.6567 32.3106 3.11469 29.0802 7.32393C28.905 7.55222 28.5673 8.03381 28.3296 8.39657C28.092 8.7562 27.8793 9.0783 27.8574 9.10645C27.8199 9.15336 27.7824 9.14398 27.4384 8.99074C25.8779 8.30275 24.0234 7.94312 22.0158 7.94312C20.0081 7.94312 18.1881 8.29337 16.6057 8.98762C16.2492 9.14085 16.2116 9.15336 16.1741 9.10645C16.1522 9.07518 15.9646 8.79373 15.7551 8.47475C13.2783 4.68456 9.74768 1.96388 5.80112 0.797421C4.37823 0.378376 3.29934 0.212635 1.23225 0.0937996C-0.0843127 0.0187454 0.0313945 0.0187454 0.0313945 0.0812912Z" fill="url(#paint0_linear_531_181)" fill-opacity="0.61"/>
<path d="M16.9592 20.4958C16.3932 20.6334 15.9147 21.1275 15.7959 21.6967C15.6864 22.2158 15.8428 22.7287 16.2274 23.1133C16.8497 23.7356 17.8004 23.7356 18.4227 23.1133C19.045 22.491 19.045 21.5403 18.4227 20.918C18.0287 20.524 17.4877 20.3676 16.9592 20.4958Z" fill="black"/>
<path d="M26.3408 20.4958C25.7748 20.6334 25.2963 21.1275 25.1774 21.6967C25.068 22.2158 25.2244 22.7287 25.609 23.1133C26.2313 23.7356 27.182 23.7356 27.8043 23.1133C28.4267 22.491 28.4267 21.5403 27.8043 20.918C27.4103 20.524 26.8693 20.3676 26.3408 20.4958Z" fill="black"/>
<path d="M21.4778 23.6261C20.9806 23.72 20.5678 23.967 20.4834 24.2234C20.3677 24.5674 20.7117 24.9021 21.3434 25.0678C21.506 25.1116 21.678 25.1241 22.0157 25.1241C22.5192 25.1241 22.76 25.0803 23.0978 24.9208C23.326 24.8145 23.5356 24.6018 23.5637 24.4455C23.6263 24.1171 23.2916 23.8138 22.7037 23.6605C22.4191 23.5855 21.7843 23.5667 21.4778 23.6261Z" fill="black"/>
</g>
<defs>
<linearGradient id="paint0_linear_531_181" x1="-1.75987" y1="2.85998" x2="37.4001" y2="31.68" gradientUnits="userSpaceOnUse">
<stop stop-color="#FFE600"/>
<stop offset="1" stop-color="#F38787"/>
</linearGradient>
<clipPath id="clip0_531_181">
<rect width="44" height="32.9609" fill="white"/>
</clipPath>
</defs>
</svg>
